<?xml version="1.0" encoding="utf-8"?>
<!-- Generator: Adobe Illustrator 25.2.3, SVG Export Plug-In . SVG Version: 6.00 Build 0)  -->
<svg version="1.1" id="Capa_1" xmlns="http://www.w3.org/2000/svg" xmlns:xlink="http://www.w3.org/1999/xlink" x="0px" y="0px"
	 viewBox="0 0 200 200" style="enable-background:new 0 0 200 200;" xml:space="preserve">
<style type="text/css">
	.st0{fill:#FFFFFF;}
</style>
<g>
	<path class="st0" d="M70.58,100.66c11.05,0,21.93,0,33.11,0c0,3.4-0.1,6.67,0.02,9.94c0.29,7.75,6.12,13.92,14.02,14.48
		c6.79,0.48,13.57-3.83,15.39-11.34c0.41-1.7,0.38-3.52,0.44-5.29c0.07-2.29,0.02-4.58,0.02-7.04c11.18,0,22.07,0,33.08,0
		c0.1,0.39,0.31,0.8,0.31,1.21c-0.1,13.15,0.26,26.33-0.46,39.45c-1.1,20.04-17.66,38.33-37.41,42.28
		c-27.3,5.47-52.21-10.99-57.88-38.33c-0.5-2.42-0.66-4.94-0.67-7.42c-0.07-12-0.05-24.01-0.05-36.01
		C70.48,102,70.54,101.4,70.58,100.66z"/>
	<path class="st0" d="M123.13,40.54c4.45,0.99,9.1,1.44,13.31,3.05c18.84,7.19,31.21,26.16,30.53,46.23
		c-0.01,0.35-0.09,0.7-0.17,1.33c-0.85,0.05-1.7,0.16-2.56,0.16c-9.59,0.01-19.18-0.03-28.77,0.04c-1.73,0.01-2.45-0.66-3.46-2.07
		c-1.81-2.52-4.1-4.8-6.55-6.71c-1.26-0.99-1.88-1.71-1.87-3.31c0.06-11.9,0.04-23.8,0.01-35.7c0-1.03-0.27-2.06-0.41-3.08
		L123.13,40.54z"/>
	<path class="st0" d="M114.04,40.52c-0.1,0.95-0.3,1.91-0.3,2.86c-0.02,12-0.04,24,0.01,36c0.01,1.48-0.52,2.2-1.73,3.12
		c-2.41,1.84-4.42,4.2-6.62,6.32c-0.63,0.61-1.35,1.59-2.03,1.6c-10.83,0.1-21.67,0.07-32.72,0.07c-0.57-6.13,0.26-11.98,2.31-17.56
		c6.83-18.53,20.16-29.3,39.6-32.55c0.49-0.08,1.03,0.11,1.55,0.17C114.11,40.55,114.04,40.52,114.04,40.52z"/>
	<path class="st0" d="M123.19,40.48c-3.06,0.01-6.11,0.02-9.16,0.03c0.01,0.01,0.08,0.04,0.08,0.05c-0.33-0.51-0.72-0.98-0.98-1.53
		c-4.8-10.21-14.96-15.78-25.63-14.02c-10.64,1.76-18.77,10.3-19.71,21.45c-0.54,6.43-1.5,12.52-5.92,17.52
		c-4.7,5.32-10.55,8.29-17.73,8.37c-3.64,0.04-7.28,0.01-11.15,0.01c0-3.34,0-6.55,0-10.07c3.47,0,6.83-0.19,10.17,0.04
		c6.74,0.47,14.46-5.01,14.41-14.19C57.5,34.02,67.4,19.38,84.17,15.4c16.31-3.87,34.47,6.79,39.01,23.1
		c0.17,0.63-0.02,1.36-0.05,2.04C123.13,40.54,123.19,40.48,123.19,40.48z"/>
	<path class="st0" d="M113.69,102.82c0-2.39-0.06-4.79,0.02-7.18c0.09-2.7,2.07-4.72,4.66-4.87c2.61-0.16,5.02,1.58,5.14,4.3
		c0.22,5.21,0.24,10.45,0.01,15.66c-0.13,2.89-2.52,4.53-5.35,4.3c-2.58-0.21-4.39-2.21-4.46-5.03
		C113.64,107.61,113.69,105.21,113.69,102.82z"/>
</g>
</svg>
