<?xml version="1.0" encoding="utf-8"?>
<!-- Generator: Adobe Illustrator 25.2.3, SVG Export Plug-In . SVG Version: 6.00 Build 0)  -->
<svg version="1.1" id="Capa_1" xmlns="http://www.w3.org/2000/svg" xmlns:xlink="http://www.w3.org/1999/xlink" x="0px" y="0px"
	 viewBox="0 0 200 200" style="enable-background:new 0 0 200 200;" xml:space="preserve">
<style type="text/css">
	.st0{fill:#FFFFFF;}
</style>
<g>
	<path class="st0" d="M160.54,25.02c2.56,0.15,5.14,0.14,7.67,0.48c3.46,0.47,5.86,2.78,6.22,6.26c0.36,3.47,0.43,6.99,0.33,10.48
		c-0.48,16.64-3.51,32.75-11.18,47.65c-10.82,21.02-27.23,36.63-47.68,48.2c-1.5,0.85-2.08-0.04-2.89-0.85
		c-14.69-14.69-29.38-29.37-44.06-44.05c-2.2-2.2-4.37-4.43-6.62-6.58c-0.85-0.82-1.09-1.46-0.45-2.58
		c16.4-28.35,39.14-48.59,71.82-56C142.52,26.03,151.48,25.1,160.54,25.02z M149.55,72.45c0.04-12.15-9.55-21.99-21.51-22.05
		c-12.37-0.06-22.24,9.64-22.22,21.85c0.02,12,9.76,21.77,21.79,21.85C139.63,94.19,149.51,84.43,149.55,72.45z"/>
	<path class="st0" d="M56.79,93.94c16.51,16.52,32.6,32.62,49.04,49.07c-4.65,1.34-9.35,2.71-14.05,4.02
		c-1.04,0.29-2.13,0.39-3.2,0.59c-2.82,0.51-5.22-0.32-7.23-2.33c-8.86-8.85-17.71-17.71-26.57-26.56c-2.07-2.07-3.1-4.53-2.41-7.41
		C53.75,105.54,55.28,99.81,56.79,93.94z"/>
	<path class="st0" d="M134.5,136.54c-0.49,5.4-0.51,10.33-1.54,15.04c-0.53,2.4-2.45,5.01-4.49,6.48
		c-7.44,5.34-15.15,10.31-22.86,15.26c-5.01,3.21-11.07,0.5-12.18-5.34c-0.74-3.87-1.28-7.79-1.96-11.95
		C107.21,152.87,121.22,146.2,134.5,136.54z"/>
	<path class="st0" d="M63.36,65.48c-9.53,13.19-16.27,27.1-19.42,43.08c-4.63-0.85-9.3-1.26-13.67-2.62
		c-4.65-1.44-6.49-7.02-3.87-11.15c5.12-8.07,10.44-16.01,15.82-23.9c1.72-2.52,4.34-3.95,7.48-4.22
		C54.08,66.29,58.47,65.91,63.36,65.48z"/>
	<path class="st0" d="M62.16,142.47c-0.93,1.59-1.38,2.89-2.26,3.78c-8.86,8.96-17.78,17.87-26.72,26.76
		c-2.12,2.11-4.83,2.16-6.64,0.3c-1.8-1.86-1.65-4.49,0.49-6.63c8.84-8.88,17.71-17.72,26.57-26.58c1.5-1.5,3.35-2.4,5.24-1.28
		C60.16,139.58,61,141.15,62.16,142.47z"/>
	<path class="st0" d="M48.34,130.68c-0.28,0.45-0.74,1.64-1.56,2.47c-4.45,4.55-8.96,9.05-13.49,13.51
		c-2.21,2.18-4.66,2.27-6.58,0.39c-1.88-1.85-1.79-4.42,0.34-6.59c4.53-4.59,9.08-9.14,13.66-13.68c1.42-1.41,3.1-2.06,5.07-1.14
		C47.61,126.49,48.49,127.92,48.34,130.68z"/>
	<path class="st0" d="M55.6,174.98c-1.15-0.94-2.57-1.74-3.47-2.93c-1.16-1.54-0.73-3.41,0.53-4.7c4.87-5.01,9.8-9.96,14.83-14.8
		c1.67-1.61,4.39-1.3,5.9,0.27c1.62,1.68,1.88,4.15,0.2,5.88c-4.85,5.02-9.83,9.93-14.83,14.81
		C58.1,174.15,56.99,174.35,55.6,174.98z"/>
	<path class="st0" d="M127.8,59.13c7.34,0.04,13.09,5.89,13.03,13.26c-0.06,7.25-6.06,13.12-13.33,13.03
		c-7.08-0.08-12.98-6.09-12.97-13.21C114.54,64.98,120.51,59.09,127.8,59.13z"/>
</g>
</svg>
