<?xml version="1.0" encoding="utf-8"?>
<!-- Generator: Adobe Illustrator 25.2.3, SVG Export Plug-In . SVG Version: 6.00 Build 0)  -->
<svg version="1.1" id="Capa_1" xmlns="http://www.w3.org/2000/svg" xmlns:xlink="http://www.w3.org/1999/xlink" x="0px" y="0px"
	 viewBox="0 0 200 200" style="enable-background:new 0 0 200 200;" xml:space="preserve">
<style type="text/css">
	.st0{fill:#FFFFFF;}
</style>
<g>
	<path class="st0" d="M143.93,99.92c9.3,0,18.28-0.03,27.26,0.01c7.96,0.03,14.23,4.85,16.23,12.52c0.35,1.33,0.38,2.77,0.38,4.17
		c0.03,14.43,0.03,28.86,0.01,43.29c-0.01,9.65-6.72,16.8-16.44,16.93c-14.61,0.2-29.24,0.22-43.85,0
		c-9.9-0.15-16.53-7.49-16.55-17.84c-0.05-20.33-0.04-40.67,0-61c0.02-8.06-0.16-16.13,0.33-24.16
		c1.51-24.51,19.87-45.15,44.08-49.74c4.02-0.76,8.17-1.01,12.27-1.1c5.95-0.13,9.34,3.42,9.39,9.43c0.04,4.4,0.01,8.81,0.01,13.21
		c-0.01,7.37-3.04,10.41-10.38,10.43c-10.16,0.03-18.39,5.69-21.49,14.93c-0.62,1.84-0.85,3.82-1.2,5.75
		c-0.12,0.64-0.05,1.31-0.05,1.96C143.92,85.65,143.93,92.57,143.93,99.92z"/>
	<path class="st0" d="M45.36,99.92c8.32,0,16.54-0.02,24.76,0.02c1.95,0.01,3.95,0.04,5.86,0.41c6.91,1.33,11.98,6.81,12.91,13.76
		c0.16,1.2,0.28,2.42,0.28,3.64c0.02,13.77,0.05,27.54,0,41.31c-0.03,8.31-4,14.35-11.13,16.75c-2.08,0.7-4.39,1.03-6.6,1.04
		c-13.86,0.09-27.73-0.02-41.59,0.07c-11.7,0.07-17.76-9.29-17.66-17.61c0.35-27.16,0.34-54.33,0.07-81.5
		c-0.24-24.46,17.47-49.58,46.7-54.18c4.19-0.66,8.59-0.62,12.82-0.17c3.9,0.42,6.28,3.79,6.33,7.75
		c0.07,5.25,0.04,10.49,0.02,15.74c-0.02,5.67-3.4,9.16-9.08,9.07c-4.69-0.07-9.14,0.6-13.16,3.13
		c-6.05,3.81-10.05,9.19-10.43,16.39C45.03,83.56,45.36,91.61,45.36,99.92z"/>
</g>
</svg>
