<?xml version="1.0" encoding="utf-8"?>
<!-- Generator: Adobe Illustrator 25.2.3, SVG Export Plug-In . SVG Version: 6.00 Build 0)  -->
<svg version="1.1" id="Capa_1" xmlns="http://www.w3.org/2000/svg" xmlns:xlink="http://www.w3.org/1999/xlink" x="0px" y="0px"
	 viewBox="0 0 200 200" style="enable-background:new 0 0 200 200;" xml:space="preserve">
<style type="text/css">
	.st0{fill:#FFFFFF;}
</style>
<g>
	<path class="st0" d="M16.79,40.37c55.56,0,110.92,0,166.41,0c0,35.53,0,70.93,0,106.64c-22.94,0-45.89,0-69.02,0
		c0,2.44,0,4.56,0,6.97c11.44,0,22.86,0,34.1,0c0.25,0.44,0.4,0.58,0.41,0.74c0.38,4.91,0.38,4.91-4.61,4.91
		c-30.47,0-60.95,0-91.42,0c-1.11,0-2.21,0-3.48,0c0-1.92,0-3.53,0-5.51c11.71,0,23.45,0,35.36,0c0-2.41,0-4.45,0-6.83
		c-22.54,0-45.05,0-67.75,0C16.79,111.49,16.79,76.03,16.79,40.37z M170.91,131.15c0-26.35,0-52.42,0-78.49
		c-47.43,0-94.63,0-141.96,0c0,26.22,0,52.3,0,78.49C76.33,131.15,123.54,131.15,170.91,131.15z"/>
	<path class="st0" d="M115.29,121.73c0-17.57,0-35.07,0-52.8c11.71,0,23.43,0,35.3,0c0,17.57,0,35.06,0,52.8
		C138.88,121.73,127.16,121.73,115.29,121.73z M145.42,74.11c-8.43,0-16.69,0-24.84,0c0,13.09,0,25.95,0,38.78
		c8.41,0,16.59,0,24.84,0C145.42,99.81,145.42,86.93,145.42,74.11z M136.05,117.66c-1.08-0.76-1.67-1.49-2.29-1.52
		c-0.5-0.02-1.5,0.89-1.44,1.25c0.11,0.66,0.77,1.6,1.33,1.7C134.19,119.2,134.9,118.4,136.05,117.66z"/>
	<path class="st0" d="M57.8,103.95c0-14.92,0-29.65,0-44.52c22.57,0,45.02,0,67.67,0c0,2.14,0,4.24,0,6.57
		c-1.85-0.39-3.98,1.25-5.29-1.33c-0.13-0.25-0.97-0.2-1.48-0.2c-18.24-0.01-36.47,0-54.71,0c-0.33,0-0.67,0.1-1.14,0.18
		c0,11.38,0,22.72,0,34.31c16.51,0,32.89,0,49.44,0c0,1.77,0,3.28,0,4.98C94.23,103.95,76.13,103.95,57.8,103.95z"/>
	<path class="st0" d="M47.91,113.3c0-2.2,0-4.25,0-6.68c21.48,0,42.86,0,64.41,0c0,2.06,0,4.27,0,6.68
		C90.95,113.3,69.57,113.3,47.91,113.3z M80.27,109.53c2.55,1.76,19.58,1.58,20.97,0C94.34,109.53,87.64,109.53,80.27,109.53z"/>
</g>
</svg>
